<mxfile host="app.diagrams.net" modified="2023-07-10T07:45:07.807Z" agent="Mozilla/5.0 (Windows NT 10.0; Win64; x64) AppleWebKit/537.36 (KHTML, like Gecko) Chrome/114.0.0.0 Safari/537.36" etag="qAUHvpZmnbcnuyCjmG9m" version="21.5.2" type="github">
  <diagram name="Page-1" id="aaaa8250-4180-3840-79b5-4cada1eebb92">
    <mxGraphModel dx="2206" dy="2275" grid="1" gridSize="10" guides="1" tooltips="1" connect="1" arrows="1" fold="1" page="1" pageScale="1" pageWidth="850" pageHeight="1100" background="none" math="0" shadow="0">
      <root>
        <mxCell id="0" />
        <mxCell id="1" parent="0" />
        <mxCell id="egOxDokqwsOfONXR9_TE-15" value="" style="group" vertex="1" connectable="0" parent="1">
          <mxGeometry x="500" y="640" width="491.55999999999995" height="290" as="geometry" />
        </mxCell>
        <mxCell id="egOxDokqwsOfONXR9_TE-1" value="" style="verticalLabelPosition=bottom;html=1;verticalAlign=top;strokeWidth=1;align=center;outlineConnect=0;dashed=0;outlineConnect=0;shape=mxgraph.aws3d.flatDoubleEdge2;strokeColor=#68B92E;fillColor=#68B92E;aspect=fixed;shadow=0;sketch=0;fontSize=20;fontStyle=1;fontFamily=Georgia;fontColor=#66CC00;" vertex="1" parent="egOxDokqwsOfONXR9_TE-15">
          <mxGeometry width="491.56" height="280" as="geometry" />
        </mxCell>
        <mxCell id="egOxDokqwsOfONXR9_TE-6" value="Master1" style="verticalLabelPosition=bottom;html=1;verticalAlign=top;strokeWidth=1;align=center;outlineConnect=0;dashed=0;outlineConnect=0;shape=mxgraph.aws3d.rdsMaster;fillColor=#ECECEC;strokeColor=#68B92E;aspect=fixed;fontSize=20;fontStyle=1;fontFamily=Georgia;fontColor=#000000;" vertex="1" parent="egOxDokqwsOfONXR9_TE-15">
          <mxGeometry x="320.73999999999955" y="160" width="95.26" height="103" as="geometry" />
        </mxCell>
        <mxCell id="egOxDokqwsOfONXR9_TE-9" value="Master3" style="verticalLabelPosition=bottom;html=1;verticalAlign=top;strokeWidth=1;align=center;outlineConnect=0;dashed=0;outlineConnect=0;shape=mxgraph.aws3d.rdsMaster;fillColor=#ECECEC;strokeColor=#68B92E;aspect=fixed;fontSize=20;fontStyle=1;fontFamily=Georgia;fontColor=#000000;" vertex="1" parent="egOxDokqwsOfONXR9_TE-15">
          <mxGeometry x="41.74000000000001" width="95.26" height="103" as="geometry" />
        </mxCell>
        <mxCell id="egOxDokqwsOfONXR9_TE-10" value="Master2" style="verticalLabelPosition=bottom;html=1;verticalAlign=top;strokeWidth=1;align=center;outlineConnect=0;dashed=0;outlineConnect=0;shape=mxgraph.aws3d.rdsMaster;fillColor=#ECECEC;strokeColor=#68B92E;aspect=fixed;fontSize=20;fontStyle=1;fontFamily=Georgia;fontColor=#000000;" vertex="1" parent="egOxDokqwsOfONXR9_TE-15">
          <mxGeometry x="176.73999999999978" y="77" width="95.26" height="103" as="geometry" />
        </mxCell>
        <mxCell id="egOxDokqwsOfONXR9_TE-53" value="&lt;font style=&quot;font-size: 40px;&quot;&gt;Kubernetes Cluster&lt;/font&gt;" style="text;html=1;align=left;verticalAlign=middle;resizable=0;points=[];autosize=1;strokeColor=none;fillColor=none;rotation=30;fontStyle=1;fontSize=40;fontFamily=Georgia;fontColor=#66CC00;" vertex="1" parent="egOxDokqwsOfONXR9_TE-15">
          <mxGeometry x="-50" y="230" width="420" height="60" as="geometry" />
        </mxCell>
        <mxCell id="egOxDokqwsOfONXR9_TE-16" value="" style="group" vertex="1" connectable="0" parent="1">
          <mxGeometry x="780" y="500" width="443.9200000000001" height="241.72000000000003" as="geometry" />
        </mxCell>
        <mxCell id="egOxDokqwsOfONXR9_TE-3" value="" style="verticalLabelPosition=bottom;html=1;verticalAlign=top;strokeWidth=1;align=center;outlineConnect=0;dashed=0;outlineConnect=0;shape=mxgraph.aws3d.flatDoubleEdge2;strokeColor=#68B92E;fillColor=#68B92E;aspect=fixed;shadow=0;sketch=0;fontSize=20;fontStyle=1;fontFamily=Georgia;fontColor=#66CC00;" vertex="1" parent="egOxDokqwsOfONXR9_TE-16">
          <mxGeometry width="410.33" height="233.72" as="geometry" />
        </mxCell>
        <mxCell id="egOxDokqwsOfONXR9_TE-4" value="Node3" style="verticalLabelPosition=bottom;html=1;verticalAlign=top;strokeWidth=1;align=center;outlineConnect=0;dashed=0;outlineConnect=0;shape=mxgraph.aws3d.application_server;fillColor=#ECECEC;strokeColor=#68B92E;aspect=fixed;fontSize=20;fontStyle=1;fontFamily=Georgia;fontColor=#000000;" vertex="1" parent="egOxDokqwsOfONXR9_TE-16">
          <mxGeometry x="44.12999999999988" y="8.720000000000027" width="93.24" height="94" as="geometry" />
        </mxCell>
        <mxCell id="egOxDokqwsOfONXR9_TE-11" value="Node1" style="verticalLabelPosition=bottom;html=1;verticalAlign=top;strokeWidth=1;align=center;outlineConnect=0;dashed=0;outlineConnect=0;shape=mxgraph.aws3d.application_server;fillColor=#ECECEC;strokeColor=#68B92E;aspect=fixed;fontSize=20;fontStyle=1;fontFamily=Georgia;fontColor=#000000;" vertex="1" parent="egOxDokqwsOfONXR9_TE-16">
          <mxGeometry x="243.28999999999996" y="121.72000000000003" width="93.24" height="94" as="geometry" />
        </mxCell>
        <mxCell id="egOxDokqwsOfONXR9_TE-12" value="Node2" style="verticalLabelPosition=bottom;html=1;verticalAlign=top;strokeWidth=1;align=center;outlineConnect=0;dashed=0;outlineConnect=0;shape=mxgraph.aws3d.application_server;fillColor=#ECECEC;strokeColor=#68B92E;aspect=fixed;fontSize=20;fontStyle=1;fontFamily=Georgia;fontColor=#000000;" vertex="1" parent="egOxDokqwsOfONXR9_TE-16">
          <mxGeometry x="140.71000000000004" y="62.72000000000003" width="93.24" height="94" as="geometry" />
        </mxCell>
        <mxCell id="egOxDokqwsOfONXR9_TE-20" value="" style="verticalLabelPosition=bottom;html=1;verticalAlign=top;strokeWidth=1;align=center;outlineConnect=0;dashed=0;outlineConnect=0;shape=mxgraph.aws3d.arrowNE;fillColor=#000000;aspect=fixed;" vertex="1" parent="egOxDokqwsOfONXR9_TE-16">
          <mxGeometry x="50" y="190" width="90.51" height="51.72" as="geometry" />
        </mxCell>
        <mxCell id="egOxDokqwsOfONXR9_TE-21" value="" style="verticalLabelPosition=bottom;html=1;verticalAlign=top;strokeWidth=1;align=center;outlineConnect=0;dashed=0;outlineConnect=0;shape=mxgraph.aws3d.arrowNE;fillColor=#000000;aspect=fixed;" vertex="1" parent="egOxDokqwsOfONXR9_TE-16">
          <mxGeometry x="267.16" y="30" width="102.76" height="58.72" as="geometry" />
        </mxCell>
        <mxCell id="egOxDokqwsOfONXR9_TE-19" value="" style="verticalLabelPosition=bottom;html=1;verticalAlign=top;strokeWidth=1;align=center;outlineConnect=0;dashed=0;outlineConnect=0;shape=mxgraph.aws3d.decider;fillColor=#ECECEC;strokeColor=#5E5E5E;aspect=fixed;" vertex="1" parent="egOxDokqwsOfONXR9_TE-16">
          <mxGeometry x="369.9200000000001" y="-20" width="74" height="50" as="geometry" />
        </mxCell>
        <mxCell id="egOxDokqwsOfONXR9_TE-25" value="" style="group" vertex="1" connectable="0" parent="1">
          <mxGeometry x="1210" y="180" width="492.76" height="339.51" as="geometry" />
        </mxCell>
        <mxCell id="egOxDokqwsOfONXR9_TE-2" value="" style="verticalLabelPosition=bottom;html=1;verticalAlign=top;strokeWidth=1;align=center;outlineConnect=0;dashed=0;outlineConnect=0;shape=mxgraph.aws3d.flatDoubleEdge2;strokeColor=#68B92E;fillColor=#68B92E;aspect=fixed;shadow=0;sketch=0;fontSize=20;fontStyle=1;fontFamily=Georgia;fontColor=#66CC00;" vertex="1" parent="egOxDokqwsOfONXR9_TE-25">
          <mxGeometry y="37" width="419.58" height="239" as="geometry" />
        </mxCell>
        <mxCell id="egOxDokqwsOfONXR9_TE-17" value="DB Master" style="verticalLabelPosition=bottom;html=1;verticalAlign=top;strokeWidth=1;align=center;outlineConnect=0;dashed=0;outlineConnect=0;shape=mxgraph.aws3d.dataCenter;strokeColor=#68B92E;aspect=fixed;fontSize=20;fontStyle=1" vertex="1" parent="egOxDokqwsOfONXR9_TE-25">
          <mxGeometry x="29.839999999999918" width="123" height="142" as="geometry" />
        </mxCell>
        <mxCell id="egOxDokqwsOfONXR9_TE-18" value="DB Salve" style="verticalLabelPosition=bottom;html=1;verticalAlign=top;strokeWidth=1;align=center;outlineConnect=0;dashed=0;outlineConnect=0;shape=mxgraph.aws3d.dataCenter;strokeColor=#68B92E;aspect=fixed;fontSize=20;fontStyle=1" vertex="1" parent="egOxDokqwsOfONXR9_TE-25">
          <mxGeometry x="240.83999999999992" y="118" width="123" height="142" as="geometry" />
        </mxCell>
        <mxCell id="egOxDokqwsOfONXR9_TE-26" value="" style="verticalLabelPosition=bottom;html=1;verticalAlign=top;strokeWidth=1;align=center;outlineConnect=0;dashed=0;outlineConnect=0;shape=mxgraph.aws3d.arrowSE;fillColor=#000000;aspect=fixed;" vertex="1" parent="egOxDokqwsOfONXR9_TE-25">
          <mxGeometry x="170" y="142" width="45.5" height="26" as="geometry" />
        </mxCell>
        <mxCell id="egOxDokqwsOfONXR9_TE-23" value="" style="verticalLabelPosition=bottom;html=1;verticalAlign=top;strokeWidth=1;align=center;outlineConnect=0;dashed=0;outlineConnect=0;shape=mxgraph.aws3d.arrowNE;fillColor=#000000;aspect=fixed;rotation=-45;" vertex="1" parent="egOxDokqwsOfONXR9_TE-25">
          <mxGeometry x="-29.999999999999773" y="201.27999999999997" width="102.76" height="58.72" as="geometry" />
        </mxCell>
        <mxCell id="egOxDokqwsOfONXR9_TE-42" value="" style="verticalLabelPosition=bottom;html=1;verticalAlign=top;strokeWidth=1;align=center;outlineConnect=0;dashed=0;outlineConnect=0;shape=mxgraph.aws3d.dashedEdge2;strokeColor=#2D6195;aspect=fixed;rotation=15;" vertex="1" parent="egOxDokqwsOfONXR9_TE-25">
          <mxGeometry x="46.28" y="237.33" width="179.37" height="102.18" as="geometry" />
        </mxCell>
        <mxCell id="egOxDokqwsOfONXR9_TE-43" value="&lt;b&gt;&lt;font style=&quot;font-size: 20px;&quot;&gt;实时同步&lt;/font&gt;&lt;/b&gt;" style="text;html=1;align=center;verticalAlign=middle;resizable=0;points=[];autosize=1;strokeColor=none;fillColor=none;rotation=35;" vertex="1" parent="egOxDokqwsOfONXR9_TE-25">
          <mxGeometry x="152.83999999999992" y="102" width="100" height="40" as="geometry" />
        </mxCell>
        <mxCell id="egOxDokqwsOfONXR9_TE-44" value="&lt;b style=&quot;font-size: 20px;&quot;&gt;数据库切换器&lt;br&gt;基于k8s实时检测数据库状态，自动切换&lt;br&gt;服务无感&lt;/b&gt;" style="text;html=1;align=center;verticalAlign=middle;resizable=0;points=[];autosize=1;strokeColor=none;fillColor=none;" vertex="1" parent="1">
          <mxGeometry x="1100" y="530" width="380" height="90" as="geometry" />
        </mxCell>
        <mxCell id="egOxDokqwsOfONXR9_TE-45" value="" style="verticalLabelPosition=bottom;html=1;verticalAlign=top;strokeWidth=1;align=center;outlineConnect=0;dashed=0;outlineConnect=0;shape=mxgraph.aws3d.dashedArrowlessEdge2;strokeColor=#68B92E;aspect=fixed;direction=west;fontFamily=Georgia;fontSize=20;fontStyle=1;fontColor=#66CC00;" vertex="1" parent="1">
          <mxGeometry x="1290" y="90" width="596.88" height="340" as="geometry" />
        </mxCell>
        <mxCell id="egOxDokqwsOfONXR9_TE-46" value="" style="verticalLabelPosition=bottom;html=1;verticalAlign=top;strokeWidth=1;align=center;outlineConnect=0;dashed=0;outlineConnect=0;shape=mxgraph.aws3d.dashedArrowlessEdge2;strokeColor=#68B92E;aspect=fixed;direction=west;fontFamily=Georgia;fontSize=20;fontStyle=1;fontColor=#66CC00;rotation=-240;" vertex="1" parent="1">
          <mxGeometry x="874.69" y="444.02" width="1032.84" height="588.32" as="geometry" />
        </mxCell>
        <mxCell id="egOxDokqwsOfONXR9_TE-51" value="" style="verticalLabelPosition=bottom;html=1;verticalAlign=top;strokeWidth=1;align=center;outlineConnect=0;dashed=0;outlineConnect=0;shape=mxgraph.aws3d.dashedArrowlessEdge2;strokeColor=#68B92E;aspect=fixed;direction=west;fontFamily=Georgia;fontSize=20;fontStyle=1;fontColor=#66CC00;" vertex="1" parent="1">
          <mxGeometry x="276.80999999999995" y="700" width="596.88" height="340" as="geometry" />
        </mxCell>
        <mxCell id="egOxDokqwsOfONXR9_TE-52" value="" style="verticalLabelPosition=bottom;html=1;verticalAlign=top;strokeWidth=1;align=center;outlineConnect=0;dashed=0;outlineConnect=0;shape=mxgraph.aws3d.dashedArrowlessEdge2;strokeColor=#68B92E;aspect=fixed;direction=west;fontFamily=Georgia;fontSize=20;fontStyle=1;fontColor=#66CC00;rotation=-240;" vertex="1" parent="1">
          <mxGeometry x="260" y="100" width="1032.84" height="588.32" as="geometry" />
        </mxCell>
        <mxCell id="egOxDokqwsOfONXR9_TE-54" value="ADBOS" style="text;html=1;align=center;verticalAlign=middle;resizable=0;points=[];autosize=1;strokeColor=none;fillColor=none;fontStyle=1;fontSize=41;fontColor=#66CC00;" vertex="1" parent="1">
          <mxGeometry x="916.96" y="319.76" width="170" height="60" as="geometry" />
        </mxCell>
      </root>
    </mxGraphModel>
  </diagram>
</mxfile>
